<svg width="72" height="24" viewBox="0 0 72 24" fill="none" xmlns="http://www.w3.org/2000/svg">
<rect width="72" height="24" rx="3" fill="#D97706"/>
<path d="M20.5325 9.9675L16.0325 5.4675C15.9634 5.40004 15.8819 5.34656 15.7925 5.31C15.6995 5.27221 15.6004 5.25187 15.5 5.25H9.5C8.90326 5.25 8.33097 5.48705 7.90901 5.90901C7.48705 6.33097 7.25 6.90326 7.25 7.5V16.5C7.25 17.0967 7.48705 17.669 7.90901 18.091C8.33097 18.5129 8.90326 18.75 9.5 18.75H18.5C19.0967 18.75 19.669 18.5129 20.091 18.091C20.5129 17.669 20.75 17.0967 20.75 16.5V10.5C20.7506 10.4013 20.7317 10.3034 20.6943 10.2121C20.657 10.1207 20.602 10.0376 20.5325 9.9675ZM11.75 6.75H14.75V8.25H11.75V6.75ZM16.25 17.25H11.75V15C11.75 14.8011 11.829 14.6103 11.9697 14.4697C12.1103 14.329 12.3011 14.25 12.5 14.25H15.5C15.6989 14.25 15.8897 14.329 16.0303 14.4697C16.171 14.6103 16.25 14.8011 16.25 15V17.25ZM19.25 16.5C19.25 16.6989 19.171 16.8897 19.0303 17.0303C18.8897 17.171 18.6989 17.25 18.5 17.25H17.75V15C17.75 14.4033 17.5129 13.831 17.091 13.409C16.669 12.9871 16.0967 12.75 15.5 12.75H12.5C11.9033 12.75 11.331 12.9871 10.909 13.409C10.4871 13.831 10.25 14.4033 10.25 15V17.25H9.5C9.30109 17.25 9.11032 17.171 8.96967 17.0303C8.82902 16.8897 8.75 16.6989 8.75 16.5V7.5C8.75 7.30109 8.82902 7.11032 8.96967 6.96967C9.11032 6.82902 9.30109 6.75 9.5 6.75H10.25V9C10.25 9.19891 10.329 9.38968 10.4697 9.53033C10.6103 9.67098 10.8011 9.75 11 9.75H15.5C15.6989 9.75 15.8897 9.67098 16.0303 9.53033C16.171 9.38968 16.25 9.19891 16.25 9V7.8075L19.25 10.8075V16.5Z" fill="white"/>
<path d="M31.528 7.636C32.44 7.636 33.228 7.808 33.892 8.152C34.564 8.488 35.076 8.972 35.428 9.604C35.788 10.236 35.968 10.98 35.968 11.836C35.968 12.692 35.788 13.436 35.428 14.068C35.076 14.692 34.564 15.172 33.892 15.508C33.228 15.836 32.44 16 31.528 16H28.924V7.636H31.528ZM31.528 15.1C32.608 15.1 33.432 14.816 34 14.248C34.568 13.672 34.852 12.868 34.852 11.836C34.852 10.796 34.564 9.984 33.988 9.4C33.42 8.816 32.6 8.524 31.528 8.524H30.016V15.1H31.528ZM43.4084 12.46C43.4084 12.668 43.3964 12.888 43.3724 13.12H38.1164C38.1564 13.768 38.3764 14.276 38.7764 14.644C39.1844 15.004 39.6764 15.184 40.2524 15.184C40.7244 15.184 41.1164 15.076 41.4284 14.86C41.7484 14.636 41.9724 14.34 42.1004 13.972H43.2764C43.1004 14.604 42.7484 15.12 42.2204 15.52C41.6924 15.912 41.0364 16.108 40.2524 16.108C39.6284 16.108 39.0684 15.968 38.5724 15.688C38.0844 15.408 37.7004 15.012 37.4204 14.5C37.1404 13.98 37.0004 13.38 37.0004 12.7C37.0004 12.02 37.1364 11.424 37.4084 10.912C37.6804 10.4 38.0604 10.008 38.5484 9.736C39.0444 9.456 39.6124 9.316 40.2524 9.316C40.8764 9.316 41.4284 9.452 41.9084 9.724C42.3884 9.996 42.7564 10.372 43.0124 10.852C43.2764 11.324 43.4084 11.86 43.4084 12.46ZM42.2804 12.232C42.2804 11.816 42.1884 11.46 42.0044 11.164C41.8204 10.86 41.5684 10.632 41.2484 10.48C40.9364 10.32 40.5884 10.24 40.2044 10.24C39.6524 10.24 39.1804 10.416 38.7884 10.768C38.4044 11.12 38.1844 11.608 38.1284 12.232H42.2804ZM45.9418 7.12V16H44.8498V7.12H45.9418ZM53.8029 12.46C53.8029 12.668 53.7909 12.888 53.7669 13.12H48.5109C48.5509 13.768 48.7709 14.276 49.1709 14.644C49.5789 15.004 50.0709 15.184 50.6469 15.184C51.1189 15.184 51.5109 15.076 51.8229 14.86C52.1429 14.636 52.3669 14.34 52.4949 13.972H53.6709C53.4949 14.604 53.1429 15.12 52.6149 15.52C52.0869 15.912 51.4309 16.108 50.6469 16.108C50.0229 16.108 49.4629 15.968 48.9669 15.688C48.4789 15.408 48.0949 15.012 47.8149 14.5C47.5349 13.98 47.3949 13.38 47.3949 12.7C47.3949 12.02 47.5309 11.424 47.8029 10.912C48.0749 10.4 48.4549 10.008 48.9429 9.736C49.4389 9.456 50.0069 9.316 50.6469 9.316C51.2709 9.316 51.8229 9.452 52.3029 9.724C52.7829 9.996 53.1509 10.372 53.4069 10.852C53.6709 11.324 53.8029 11.86 53.8029 12.46ZM52.6749 12.232C52.6749 11.816 52.5829 11.46 52.3989 11.164C52.2149 10.86 51.9629 10.632 51.6429 10.48C51.3309 10.32 50.9829 10.24 50.5989 10.24C50.0469 10.24 49.5749 10.416 49.1829 10.768C48.7989 11.12 48.5789 11.608 48.5229 12.232H52.6749ZM56.5763 10.324V14.2C56.5763 14.52 56.6443 14.748 56.7803 14.884C56.9163 15.012 57.1523 15.076 57.4883 15.076H58.2923V16H57.3083C56.7003 16 56.2443 15.86 55.9403 15.58C55.6363 15.3 55.4843 14.84 55.4843 14.2V10.324H54.6323V9.424H55.4843V7.768H56.5763V9.424H58.2923V10.324H56.5763ZM65.6154 12.46C65.6154 12.668 65.6034 12.888 65.5794 13.12H60.3234C60.3634 13.768 60.5834 14.276 60.9834 14.644C61.3914 15.004 61.8834 15.184 62.4594 15.184C62.9314 15.184 63.3234 15.076 63.6354 14.86C63.9554 14.636 64.1794 14.34 64.3074 13.972H65.4834C65.3074 14.604 64.9554 15.12 64.4274 15.52C63.8994 15.912 63.2434 16.108 62.4594 16.108C61.8354 16.108 61.2754 15.968 60.7794 15.688C60.2914 15.408 59.9074 15.012 59.6274 14.5C59.3474 13.98 59.2074 13.38 59.2074 12.7C59.2074 12.02 59.3434 11.424 59.6154 10.912C59.8874 10.4 60.2674 10.008 60.7554 9.736C61.2514 9.456 61.8194 9.316 62.4594 9.316C63.0834 9.316 63.6354 9.452 64.1154 9.724C64.5954 9.996 64.9634 10.372 65.2194 10.852C65.4834 11.324 65.6154 11.86 65.6154 12.46ZM64.4874 12.232C64.4874 11.816 64.3954 11.46 64.2114 11.164C64.0274 10.86 63.7754 10.632 63.4554 10.48C63.1434 10.32 62.7954 10.24 62.4114 10.24C61.8594 10.24 61.3874 10.416 60.9954 10.768C60.6114 11.12 60.3914 11.608 60.3354 12.232H64.4874Z" fill="white"/>
</svg>
