<svg width="55" height="24" viewBox="0 0 55 24" fill="none" xmlns="http://www.w3.org/2000/svg">
<rect width="55" height="24" rx="3" fill="#1D4ED8"/>
<path d="M20.5325 9.9675L16.0325 5.4675C15.9634 5.40004 15.8819 5.34656 15.7925 5.31C15.6995 5.27221 15.6004 5.25187 15.5 5.25H9.5C8.90326 5.25 8.33097 5.48705 7.90901 5.90901C7.48705 6.33097 7.25 6.90326 7.25 7.5V16.5C7.25 17.0967 7.48705 17.669 7.90901 18.091C8.33097 18.5129 8.90326 18.75 9.5 18.75H18.5C19.0967 18.75 19.669 18.5129 20.091 18.091C20.5129 17.669 20.75 17.0967 20.75 16.5V10.5C20.7506 10.4013 20.7317 10.3034 20.6943 10.2121C20.657 10.1207 20.602 10.0376 20.5325 9.9675ZM11.75 6.75H14.75V8.25H11.75V6.75ZM16.25 17.25H11.75V15C11.75 14.8011 11.829 14.6103 11.9697 14.4697C12.1103 14.329 12.3011 14.25 12.5 14.25H15.5C15.6989 14.25 15.8897 14.329 16.0303 14.4697C16.171 14.6103 16.25 14.8011 16.25 15V17.25ZM19.25 16.5C19.25 16.6989 19.171 16.8897 19.0303 17.0303C18.8897 17.171 18.6989 17.25 18.5 17.25H17.75V15C17.75 14.4033 17.5129 13.831 17.091 13.409C16.669 12.9871 16.0967 12.75 15.5 12.75H12.5C11.9033 12.75 11.331 12.9871 10.909 13.409C10.4871 13.831 10.25 14.4033 10.25 15V17.25H9.5C9.30109 17.25 9.11032 17.171 8.96967 17.0303C8.82902 16.8897 8.75 16.6989 8.75 16.5V7.5C8.75 7.30109 8.82902 7.11032 8.96967 6.96967C9.11032 6.82902 9.30109 6.75 9.5 6.75H10.25V9C10.25 9.19891 10.329 9.38968 10.4697 9.53033C10.6103 9.67098 10.8011 9.75 11 9.75H15.5C15.6989 9.75 15.8897 9.67098 16.0303 9.53033C16.171 9.38968 16.25 9.19891 16.25 9V7.8075L19.25 10.8075V16.5Z" fill="white"/>
<path d="M30.016 8.524V11.32H33.064V12.22H30.016V15.1H33.424V16H28.924V7.624H33.424V8.524H30.016ZM34.6683 12.688C34.6683 12.016 34.8043 11.428 35.0763 10.924C35.3483 10.412 35.7203 10.016 36.1923 9.736C36.6723 9.456 37.2083 9.316 37.8003 9.316C38.3123 9.316 38.7883 9.436 39.2283 9.676C39.6683 9.908 40.0043 10.216 40.2363 10.6V7.12H41.3403V16H40.2363V14.764C40.0203 15.156 39.7003 15.48 39.2763 15.736C38.8523 15.984 38.3563 16.108 37.7883 16.108C37.2043 16.108 36.6723 15.964 36.1923 15.676C35.7203 15.388 35.3483 14.984 35.0763 14.464C34.8043 13.944 34.6683 13.352 34.6683 12.688ZM40.2363 12.7C40.2363 12.204 40.1363 11.772 39.9363 11.404C39.7363 11.036 39.4643 10.756 39.1203 10.564C38.7843 10.364 38.4123 10.264 38.0043 10.264C37.5963 10.264 37.2243 10.36 36.8883 10.552C36.5523 10.744 36.2843 11.024 36.0843 11.392C35.8843 11.76 35.7843 12.192 35.7843 12.688C35.7843 13.192 35.8843 13.632 36.0843 14.008C36.2843 14.376 36.5523 14.66 36.8883 14.86C37.2243 15.052 37.5963 15.148 38.0043 15.148C38.4123 15.148 38.7843 15.052 39.1203 14.86C39.4643 14.66 39.7363 14.376 39.9363 14.008C40.1363 13.632 40.2363 13.196 40.2363 12.7ZM43.7497 8.356C43.5417 8.356 43.3657 8.284 43.2217 8.14C43.0777 7.996 43.0057 7.82 43.0057 7.612C43.0057 7.404 43.0777 7.228 43.2217 7.084C43.3657 6.94 43.5417 6.868 43.7497 6.868C43.9497 6.868 44.1177 6.94 44.2537 7.084C44.3977 7.228 44.4697 7.404 44.4697 7.612C44.4697 7.82 44.3977 7.996 44.2537 8.14C44.1177 8.284 43.9497 8.356 43.7497 8.356ZM44.2777 9.424V16H43.1857V9.424H44.2777ZM47.4708 10.324V14.2C47.4708 14.52 47.5388 14.748 47.6748 14.884C47.8108 15.012 48.0468 15.076 48.3828 15.076H49.1868V16H48.2028C47.5948 16 47.1388 15.86 46.8348 15.58C46.5308 15.3 46.3788 14.84 46.3788 14.2V10.324H45.5268V9.424H46.3788V7.768H47.4708V9.424H49.1868V10.324H47.4708Z" fill="white"/>
</svg>
