<svg width="14" height="16" viewBox="0 0 14 16" fill="none" xmlns="http://www.w3.org/2000/svg">
<path d="M13 5.5L8.50001 1.555C8.08749 1.18604 7.55346 0.982056 7.00001 0.982056C6.44656 0.982056 5.91253 1.18604 5.50001 1.555L1.00001 5.5C0.761786 5.71306 0.571685 5.97442 0.442364 6.26669C0.313043 6.55895 0.24747 6.87542 0.25001 7.195V13.75C0.25001 14.3467 0.487063 14.919 0.90902 15.341C1.33098 15.763 1.90327 16 2.50001 16H11.5C12.0967 16 12.669 15.763 13.091 15.341C13.513 14.919 13.75 14.3467 13.75 13.75V7.1875C13.7515 6.86918 13.6854 6.55416 13.5561 6.26327C13.4268 5.97237 13.2373 5.71222 13 5.5V5.5ZM8.50001 14.5H5.50001V10.75C5.50001 10.5511 5.57903 10.3603 5.71968 10.2197C5.86033 10.079 6.0511 10 6.25001 10H7.75001C7.94892 10 8.13969 10.079 8.28034 10.2197C8.42099 10.3603 8.50001 10.5511 8.50001 10.75V14.5ZM12.25 13.75C12.25 13.9489 12.171 14.1397 12.0303 14.2803C11.8897 14.421 11.6989 14.5 11.5 14.5H10V10.75C10 10.1533 9.76296 9.58097 9.341 9.15901C8.91904 8.73706 8.34675 8.5 7.75001 8.5H6.25001C5.65327 8.5 5.08098 8.73706 4.65902 9.15901C4.23706 9.58097 4.00001 10.1533 4.00001 10.75V14.5H2.50001C2.3011 14.5 2.11033 14.421 1.96968 14.2803C1.82903 14.1397 1.75001 13.9489 1.75001 13.75V7.1875C1.75014 7.08102 1.77296 6.97578 1.81692 6.87879C1.86089 6.7818 1.92501 6.69529 2.00501 6.625L6.50501 2.6875C6.64188 2.56727 6.81783 2.50095 7.00001 2.50095C7.18219 2.50095 7.35814 2.56727 7.49501 2.6875L11.995 6.625C12.075 6.69529 12.1391 6.7818 12.1831 6.87879C12.2271 6.97578 12.2499 7.08102 12.25 7.1875V13.75Z" fill="white"/>
</svg>
