<svg width="18" height="18" viewBox="0 0 18 18" fill="none" xmlns="http://www.w3.org/2000/svg">
<path d="M2.7825 12.2175C2.71117 12.1492 2.62706 12.0957 2.535 12.06C2.3524 11.985 2.1476 11.985 1.965 12.06C1.87294 12.0957 1.78883 12.1492 1.7175 12.2175C1.64922 12.2888 1.5957 12.3729 1.56 12.465C1.50257 12.6016 1.48687 12.7521 1.5149 12.8976C1.54294 13.0431 1.61343 13.177 1.7175 13.2825C1.7904 13.3487 1.87411 13.402 1.965 13.44C2.05478 13.4797 2.15185 13.5002 2.25 13.5002C2.34815 13.5002 2.44523 13.4797 2.535 13.44C2.62589 13.402 2.7096 13.3487 2.7825 13.2825C2.88657 13.177 2.95707 13.0431 2.9851 12.8976C3.01313 12.7521 2.99744 12.6016 2.94 12.465C2.90431 12.3729 2.85078 12.2888 2.7825 12.2175V12.2175ZM5.25 6H15.75C15.9489 6 16.1397 5.92098 16.2803 5.78033C16.421 5.63968 16.5 5.44891 16.5 5.25C16.5 5.05109 16.421 4.86032 16.2803 4.71967C16.1397 4.57902 15.9489 4.5 15.75 4.5H5.25C5.05109 4.5 4.86032 4.57902 4.71967 4.71967C4.57902 4.86032 4.5 5.05109 4.5 5.25C4.5 5.44891 4.57902 5.63968 4.71967 5.78033C4.86032 5.92098 5.05109 6 5.25 6ZM2.7825 8.4675C2.67703 8.36343 2.5431 8.29293 2.39761 8.2649C2.25212 8.23687 2.10158 8.25257 1.965 8.31C1.87411 8.34798 1.7904 8.40125 1.7175 8.4675C1.64922 8.53883 1.5957 8.62294 1.56 8.715C1.52032 8.80478 1.49983 8.90185 1.49983 9C1.49983 9.09815 1.52032 9.19522 1.56 9.285C1.59798 9.37589 1.65125 9.4596 1.7175 9.5325C1.7904 9.59875 1.87411 9.65202 1.965 9.69C2.05478 9.72968 2.15185 9.75017 2.25 9.75017C2.34815 9.75017 2.44523 9.72968 2.535 9.69C2.62589 9.65202 2.7096 9.59875 2.7825 9.5325C2.84875 9.4596 2.90202 9.37589 2.94 9.285C2.97968 9.19522 3.00018 9.09815 3.00018 9C3.00018 8.90185 2.97968 8.80478 2.94 8.715C2.90431 8.62294 2.85078 8.53883 2.7825 8.4675V8.4675ZM15.75 8.25H5.25C5.05109 8.25 4.86032 8.32902 4.71967 8.46967C4.57902 8.61032 4.5 8.80109 4.5 9C4.5 9.19891 4.57902 9.38968 4.71967 9.53033C4.86032 9.67098 5.05109 9.75 5.25 9.75H15.75C15.9489 9.75 16.1397 9.67098 16.2803 9.53033C16.421 9.38968 16.5 9.19891 16.5 9C16.5 8.80109 16.421 8.61032 16.2803 8.46967C16.1397 8.32902 15.9489 8.25 15.75 8.25ZM2.7825 4.7175C2.71117 4.64922 2.62706 4.5957 2.535 4.56C2.39842 4.50257 2.24788 4.48687 2.10239 4.5149C1.9569 4.54293 1.82297 4.61343 1.7175 4.7175C1.65125 4.7904 1.59798 4.87411 1.56 4.965C1.52032 5.05478 1.49983 5.15185 1.49983 5.25C1.49983 5.34815 1.52032 5.44522 1.56 5.535C1.59798 5.62589 1.65125 5.7096 1.7175 5.7825C1.7904 5.84875 1.87411 5.90202 1.965 5.94C2.10158 5.99743 2.25212 6.01313 2.39761 5.9851C2.5431 5.95707 2.67703 5.88657 2.7825 5.7825C2.84875 5.7096 2.90202 5.62589 2.94 5.535C2.97968 5.44522 3.00018 5.34815 3.00018 5.25C3.00018 5.15185 2.97968 5.05478 2.94 4.965C2.90202 4.87411 2.84875 4.7904 2.7825 4.7175V4.7175ZM15.75 12H5.25C5.05109 12 4.86032 12.079 4.71967 12.2197C4.57902 12.3603 4.5 12.5511 4.5 12.75C4.5 12.9489 4.57902 13.1397 4.71967 13.2803C4.86032 13.421 5.05109 13.5 5.25 13.5H15.75C15.9489 13.5 16.1397 13.421 16.2803 13.2803C16.421 13.1397 16.5 12.9489 16.5 12.75C16.5 12.5511 16.421 12.3603 16.2803 12.2197C16.1397 12.079 15.9489 12 15.75 12Z" fill="white"/>
</svg>
