<svg width="39" height="23" viewBox="0 0 39 23" fill="none" xmlns="http://www.w3.org/2000/svg">
<path d="M2.5625 0.25C2.19166 0.25 1.82915 0.359967 1.52081 0.565995C1.21246 0.772022 0.972141 1.06486 0.830227 1.40747C0.688312 1.75008 0.651181 2.12708 0.723528 2.49079C0.795876 2.85451 0.974452 3.1886 1.23668 3.45082C1.4989 3.71305 1.83299 3.89163 2.19671 3.96397C2.56042 4.03632 2.93742 3.99919 3.28003 3.85727C3.62264 3.71536 3.91548 3.47504 4.12151 3.16669C4.32753 2.85835 4.4375 2.49584 4.4375 2.125C4.4375 1.62772 4.23996 1.15081 3.88833 0.799175C3.5367 0.447544 3.05978 0.25 2.5625 0.25ZM10.0625 4H36.3125C36.8098 4 37.2867 3.80246 37.6383 3.45082C37.99 3.09919 38.1875 2.62228 38.1875 2.125C38.1875 1.62772 37.99 1.15081 37.6383 0.799175C37.2867 0.447544 36.8098 0.25 36.3125 0.25H10.0625C9.56522 0.25 9.08831 0.447544 8.73668 0.799175C8.38505 1.15081 8.1875 1.62772 8.1875 2.125C8.1875 2.62228 8.38505 3.09919 8.73668 3.45082C9.08831 3.80246 9.56522 4 10.0625 4ZM10.0625 9.625C9.69166 9.625 9.32915 9.73497 9.02081 9.94099C8.71246 10.147 8.47214 10.4399 8.33023 10.7825C8.18831 11.1251 8.15118 11.5021 8.22353 11.8658C8.29588 12.2295 8.47445 12.5636 8.73668 12.8258C8.9989 13.088 9.33299 13.2666 9.69671 13.339C10.0604 13.4113 10.4374 13.3742 10.78 13.2323C11.1226 13.0904 11.4155 12.85 11.6215 12.5417C11.8275 12.2334 11.9375 11.8708 11.9375 11.5C11.9375 11.0027 11.74 10.5258 11.3883 10.1742C11.0367 9.82254 10.5598 9.625 10.0625 9.625ZM17.5625 19C17.1917 19 16.8291 19.11 16.5208 19.316C16.2125 19.522 15.9721 19.8149 15.8302 20.1575C15.6883 20.5001 15.6512 20.8771 15.7235 21.2408C15.7959 21.6045 15.9745 21.9386 16.2367 22.2008C16.4989 22.463 16.833 22.6416 17.1967 22.714C17.5604 22.7863 17.9374 22.7492 18.28 22.6073C18.6226 22.4654 18.9155 22.225 19.1215 21.9167C19.3275 21.6084 19.4375 21.2458 19.4375 20.875C19.4375 20.3777 19.24 19.9008 18.8883 19.5492C18.5367 19.1975 18.0598 19 17.5625 19ZM36.3125 9.625H17.5625C17.0652 9.625 16.5883 9.82254 16.2367 10.1742C15.885 10.5258 15.6875 11.0027 15.6875 11.5C15.6875 11.9973 15.885 12.4742 16.2367 12.8258C16.5883 13.1775 17.0652 13.375 17.5625 13.375H36.3125C36.8098 13.375 37.2867 13.1775 37.6383 12.8258C37.99 12.4742 38.1875 11.9973 38.1875 11.5C38.1875 11.0027 37.99 10.5258 37.6383 10.1742C37.2867 9.82254 36.8098 9.625 36.3125 9.625ZM36.3125 19H25.0625C24.5652 19 24.0883 19.1975 23.7367 19.5492C23.385 19.9008 23.1875 20.3777 23.1875 20.875C23.1875 21.3723 23.385 21.8492 23.7367 22.2008C24.0883 22.5525 24.5652 22.75 25.0625 22.75H36.3125C36.8098 22.75 37.2867 22.5525 37.6383 22.2008C37.99 21.8492 38.1875 21.3723 38.1875 20.875C38.1875 20.3777 37.99 19.9008 37.6383 19.5492C37.2867 19.1975 36.8098 19 36.3125 19Z" fill="#9333EA"/>
</svg>
