<svg width="14" height="14" viewBox="0 0 14 14" fill="none" xmlns="http://www.w3.org/2000/svg">
<path d="M13.2825 4.7175L8.7825 0.2175C8.71339 0.150037 8.6319 0.0965573 8.5425 0.0599999C8.44951 0.0222127 8.35036 0.00187356 8.25 0H2.25C1.65326 0 1.08097 0.237053 0.65901 0.65901C0.237053 1.08097 0 1.65326 0 2.25V11.25C0 11.8467 0.237053 12.419 0.65901 12.841C1.08097 13.2629 1.65326 13.5 2.25 13.5H11.25C11.8467 13.5 12.419 13.2629 12.841 12.841C13.2629 12.419 13.5 11.8467 13.5 11.25V5.25C13.5006 5.1513 13.4817 5.05345 13.4443 4.96207C13.407 4.87069 13.352 4.78758 13.2825 4.7175ZM4.5 1.5H7.5V3H4.5V1.5ZM9 12H4.5V9.75C4.5 9.55109 4.57902 9.36032 4.71967 9.21967C4.86032 9.07902 5.05109 9 5.25 9H8.25C8.44891 9 8.63968 9.07902 8.78033 9.21967C8.92098 9.36032 9 9.55109 9 9.75V12ZM12 11.25C12 11.4489 11.921 11.6397 11.7803 11.7803C11.6397 11.921 11.4489 12 11.25 12H10.5V9.75C10.5 9.15326 10.2629 8.58097 9.84099 8.15901C9.41903 7.73705 8.84674 7.5 8.25 7.5H5.25C4.65326 7.5 4.08097 7.73705 3.65901 8.15901C3.23705 8.58097 3 9.15326 3 9.75V12H2.25C2.05109 12 1.86032 11.921 1.71967 11.7803C1.57902 11.6397 1.5 11.4489 1.5 11.25V2.25C1.5 2.05109 1.57902 1.86032 1.71967 1.71967C1.86032 1.57902 2.05109 1.5 2.25 1.5H3V3.75C3 3.94891 3.07902 4.13968 3.21967 4.28033C3.36032 4.42098 3.55109 4.5 3.75 4.5H8.25C8.44891 4.5 8.63968 4.42098 8.78033 4.28033C8.92098 4.13968 9 3.94891 9 3.75V2.5575L12 5.5575V11.25Z" fill="white"/>
</svg>
