<svg width="15" height="15" viewBox="0 0 15 15" fill="none" xmlns="http://www.w3.org/2000/svg">
<path d="M14.49 5.6625L13.0725 5.19L13.74 3.855C13.8077 3.71527 13.8303 3.55798 13.8048 3.40483C13.7793 3.25169 13.7068 3.11024 13.5975 3L12 1.4025C11.8892 1.29157 11.7464 1.21816 11.5917 1.1926C11.437 1.16704 11.2781 1.19061 11.1375 1.26L9.8025 1.9275L9.33 0.510003C9.2801 0.362247 9.18538 0.233722 9.05902 0.142314C8.93266 0.0509053 8.78095 0.00116075 8.625 2.50015e-06H6.375C6.21777 -0.000403371 6.06439 0.0486167 5.93653 0.140134C5.80868 0.231651 5.71282 0.361037 5.6625 0.510003L5.19 1.9275L3.855 1.26C3.71527 1.19234 3.55798 1.16971 3.40483 1.19523C3.25169 1.22075 3.11024 1.29318 3 1.4025L1.4025 3C1.29157 3.11083 1.21816 3.25363 1.1926 3.40834C1.16704 3.56305 1.19061 3.72189 1.26 3.8625L1.9275 5.1975L0.510003 5.67C0.362247 5.7199 0.233722 5.81462 0.142314 5.94098C0.0509053 6.06734 0.00116075 6.21905 2.50015e-06 6.375V8.625C-0.000403371 8.78223 0.0486167 8.93562 0.140134 9.06347C0.231651 9.19133 0.361037 9.28719 0.510003 9.3375L1.9275 9.81L1.26 11.145C1.19234 11.2847 1.16971 11.442 1.19523 11.5952C1.22075 11.7483 1.29318 11.8898 1.4025 12L3 13.5975C3.11083 13.7084 3.25363 13.7818 3.40834 13.8074C3.56305 13.833 3.72189 13.8094 3.8625 13.74L5.1975 13.0725L5.67 14.49C5.72032 14.639 5.81618 14.7684 5.94403 14.8599C6.07189 14.9514 6.22527 15.0004 6.3825 15H8.6325C8.78974 15.0004 8.94312 14.9514 9.07097 14.8599C9.19883 14.7684 9.29469 14.639 9.345 14.49L9.8175 13.0725L11.1525 13.74C11.2913 13.806 11.4471 13.8277 11.5987 13.8022C11.7503 13.7767 11.8904 13.7052 12 13.5975L13.5975 12C13.7084 11.8892 13.7818 11.7464 13.8074 11.5917C13.833 11.437 13.8094 11.2781 13.74 11.1375L13.0725 9.8025L14.49 9.33C14.6378 9.2801 14.7663 9.18538 14.8577 9.05902C14.9491 8.93266 14.9988 8.78095 15 8.625V6.375C15.0004 6.21777 14.9514 6.06439 14.8599 5.93653C14.7684 5.80868 14.639 5.71282 14.49 5.6625ZM13.5 8.085L12.6 8.385C12.393 8.45213 12.2032 8.56348 12.0435 8.71133C11.8839 8.85917 11.7584 9.03997 11.6756 9.24119C11.5928 9.4424 11.5548 9.65921 11.5642 9.87658C11.5736 10.094 11.6302 10.3067 11.73 10.5L12.1575 11.355L11.3325 12.18L10.5 11.73C10.3077 11.6342 10.097 11.5808 9.88224 11.5735C9.66748 11.5662 9.45366 11.6051 9.25524 11.6875C9.05683 11.77 8.87845 11.8942 8.73219 12.0516C8.58593 12.2091 8.4752 12.3961 8.4075 12.6L8.1075 13.5H6.915L6.615 12.6C6.54787 12.393 6.43652 12.2032 6.28868 12.0435C6.14083 11.8839 5.96003 11.7584 5.75882 11.6756C5.5576 11.5928 5.34079 11.5548 5.12342 11.5642C4.90605 11.5736 4.69333 11.6302 4.5 11.73L3.645 12.1575L2.82 11.3325L3.27 10.5C3.36982 10.3067 3.42639 10.094 3.43579 9.87658C3.44518 9.65921 3.40718 9.4424 3.32441 9.24119C3.24164 9.03997 3.11609 8.85917 2.95646 8.71133C2.79684 8.56348 2.60696 8.45213 2.4 8.385L1.5 8.085V6.915L2.4 6.615C2.60696 6.54787 2.79684 6.43652 2.95646 6.28868C3.11609 6.14083 3.24164 5.96003 3.32441 5.75882C3.40718 5.5576 3.44518 5.34079 3.43579 5.12342C3.42639 4.90605 3.36982 4.69333 3.27 4.5L2.8425 3.6675L3.6675 2.8425L4.5 3.27C4.69333 3.36982 4.90605 3.42639 5.12342 3.43579C5.34079 3.44518 5.5576 3.40718 5.75882 3.32441C5.96003 3.24164 6.14083 3.11609 6.28868 2.95646C6.43652 2.79684 6.54787 2.60696 6.615 2.4L6.915 1.5H8.085L8.385 2.4C8.45213 2.60696 8.56348 2.79684 8.71133 2.95646C8.85917 3.11609 9.03997 3.24164 9.24119 3.32441C9.4424 3.40718 9.65921 3.44518 9.87658 3.43579C10.094 3.42639 10.3067 3.36982 10.5 3.27L11.355 2.8425L12.18 3.6675L11.73 4.5C11.6342 4.69234 11.5808 4.90301 11.5735 5.11777C11.5662 5.33253 11.6051 5.54635 11.6875 5.74476C11.77 5.94318 11.8942 6.12155 12.0516 6.26781C12.2091 6.41407 12.3961 6.5248 12.6 6.5925L13.5 6.8925V8.085ZM7.5 4.5C6.90666 4.5 6.32664 4.67595 5.83329 5.00559C5.33994 5.33524 4.95543 5.80377 4.72836 6.35195C4.5013 6.90013 4.44189 7.50333 4.55765 8.08527C4.6734 8.66722 4.95912 9.20177 5.37868 9.62132C5.79824 10.0409 6.33279 10.3266 6.91473 10.4424C7.49667 10.5581 8.09987 10.4987 8.64805 10.2716C9.19623 10.0446 9.66477 9.66006 9.99441 9.16671C10.3241 8.67337 10.5 8.09335 10.5 7.5C10.5 6.70435 10.1839 5.94129 9.62132 5.37868C9.05871 4.81607 8.29565 4.5 7.5 4.5V4.5ZM7.5 9C7.20333 9 6.91332 8.91203 6.66665 8.74721C6.41997 8.58238 6.22771 8.34812 6.11418 8.07403C6.00065 7.79994 5.97095 7.49834 6.02882 7.20737C6.0867 6.9164 6.22956 6.64912 6.43934 6.43934C6.64912 6.22956 6.9164 6.0867 7.20737 6.02882C7.49834 5.97095 7.79994 6.00065 8.07403 6.11418C8.34812 6.22771 8.58238 6.41997 8.74721 6.66665C8.91203 6.91332 9 7.20333 9 7.5C9 7.89783 8.84197 8.27936 8.56066 8.56066C8.27936 8.84197 7.89783 9 7.5 9Z" fill="white"/>
</svg>
