<svg width="30" height="38" viewBox="0 0 30 38" fill="none" xmlns="http://www.w3.org/2000/svg">
<path d="M28.125 9.375H22.5V7.5C22.5 5.51088 21.7098 3.60322 20.3033 2.1967C18.8968 0.790176 16.9891 0 15 0C13.0109 0 11.1032 0.790176 9.6967 2.1967C8.29018 3.60322 7.5 5.51088 7.5 7.5V9.375H1.875C1.37772 9.375 0.900806 9.57254 0.549175 9.92418C0.197544 10.2758 0 10.7527 0 11.25V31.875C0 33.3668 0.592632 34.7976 1.64752 35.8525C2.70242 36.9074 4.13316 37.5 5.625 37.5H24.375C25.8668 37.5 27.2976 36.9074 28.3525 35.8525C29.4074 34.7976 30 33.3668 30 31.875V11.25C30 10.7527 29.8025 10.2758 29.4508 9.92418C29.0992 9.57254 28.6223 9.375 28.125 9.375ZM11.25 7.5C11.25 6.50544 11.6451 5.55161 12.3484 4.84835C13.0516 4.14509 14.0054 3.75 15 3.75C15.9946 3.75 16.9484 4.14509 17.6516 4.84835C18.3549 5.55161 18.75 6.50544 18.75 7.5V9.375H11.25V7.5ZM26.25 31.875C26.25 32.3723 26.0525 32.8492 25.7008 33.2008C25.3492 33.5525 24.8723 33.75 24.375 33.75H5.625C5.12772 33.75 4.65081 33.5525 4.29918 33.2008C3.94754 32.8492 3.75 32.3723 3.75 31.875V13.125H7.5V15C7.5 15.4973 7.69754 15.9742 8.04918 16.3258C8.40081 16.6775 8.87772 16.875 9.375 16.875C9.87228 16.875 10.3492 16.6775 10.7008 16.3258C11.0525 15.9742 11.25 15.4973 11.25 15V13.125H18.75V15C18.75 15.4973 18.9475 15.9742 19.2992 16.3258C19.6508 16.6775 20.1277 16.875 20.625 16.875C21.1223 16.875 21.5992 16.6775 21.9508 16.3258C22.3025 15.9742 22.5 15.4973 22.5 15V13.125H26.25V31.875Z" fill="#EA580C"/>
</svg>
