<svg width="43" height="33" viewBox="0 0 43 33" fill="none" xmlns="http://www.w3.org/2000/svg">
<path d="M22.0625 16.9125C23.063 16.0465 23.8654 14.9754 24.4154 13.7719C24.9654 12.5684 25.25 11.2607 25.25 9.9375C25.25 7.4511 24.2623 5.06653 22.5041 3.30837C20.746 1.55022 18.3614 0.5625 15.875 0.5625C13.3886 0.5625 11.004 1.55022 9.24587 3.30837C7.48772 5.06653 6.5 7.4511 6.5 9.9375C6.49999 11.2607 6.78463 12.5684 7.33461 13.7719C7.88459 14.9754 8.68704 16.0465 9.6875 16.9125C7.06276 18.101 4.83587 20.0204 3.27309 22.441C1.7103 24.8617 0.87776 27.6812 0.875 30.5625C0.875 31.0598 1.07254 31.5367 1.42417 31.8883C1.77581 32.24 2.25272 32.4375 2.75 32.4375C3.24728 32.4375 3.72419 32.24 4.07583 31.8883C4.42746 31.5367 4.625 31.0598 4.625 30.5625C4.625 27.5788 5.81026 24.7173 7.92005 22.6075C10.0298 20.4978 12.8913 19.3125 15.875 19.3125C18.8587 19.3125 21.7202 20.4978 23.83 22.6075C25.9397 24.7173 27.125 27.5788 27.125 30.5625C27.125 31.0598 27.3225 31.5367 27.6742 31.8883C28.0258 32.24 28.5027 32.4375 29 32.4375C29.4973 32.4375 29.9742 32.24 30.3258 31.8883C30.6775 31.5367 30.875 31.0598 30.875 30.5625C30.8722 27.6812 30.0397 24.8617 28.4769 22.441C26.9141 20.0204 24.6872 18.101 22.0625 16.9125V16.9125ZM15.875 15.5625C14.7625 15.5625 13.6749 15.2326 12.7499 14.6145C11.8249 13.9964 11.1039 13.1179 10.6782 12.0901C10.2524 11.0623 10.141 9.93126 10.3581 8.84012C10.5751 7.74897 11.1109 6.7467 11.8975 5.96002C12.6842 5.17335 13.6865 4.63763 14.7776 4.42058C15.8688 4.20354 16.9998 4.31494 18.0276 4.74068C19.0554 5.16642 19.9339 5.88739 20.552 6.81242C21.1701 7.73744 21.5 8.82498 21.5 9.9375C21.5 11.4293 20.9074 12.8601 19.8525 13.915C18.7976 14.9699 17.3668 15.5625 15.875 15.5625ZM34.1375 16.1625C35.3374 14.8112 36.1213 13.142 36.3946 11.3556C36.668 9.56929 36.4192 7.74201 35.6783 6.09375C34.9374 4.44549 33.7359 3.04649 32.2184 2.06517C30.7009 1.08384 28.9321 0.562017 27.125 0.5625C26.6277 0.5625 26.1508 0.760044 25.7992 1.11168C25.4475 1.46331 25.25 1.94022 25.25 2.4375C25.25 2.93478 25.4475 3.41169 25.7992 3.76333C26.1508 4.11496 26.6277 4.3125 27.125 4.3125C28.6168 4.3125 30.0476 4.90513 31.1025 5.96002C32.1574 7.01492 32.75 8.44566 32.75 9.9375C32.7473 10.9223 32.4862 11.8892 31.9926 12.7414C31.4991 13.5936 30.7904 14.3013 29.9375 14.7938C29.6595 14.9541 29.4273 15.1831 29.2632 15.4589C29.099 15.7347 29.0084 16.0479 29 16.3688C28.9922 16.6871 29.0655 17.0021 29.2131 17.2842C29.3607 17.5663 29.5778 17.8062 29.8438 17.9812L30.575 18.4688L30.8187 18.6C33.0789 19.672 34.9856 21.3675 36.3143 23.4868C37.6431 25.6062 38.3385 28.0611 38.3187 30.5625C38.3187 31.0598 38.5163 31.5367 38.8679 31.8883C39.2196 32.24 39.6965 32.4375 40.1937 32.4375C40.691 32.4375 41.1679 32.24 41.5196 31.8883C41.8712 31.5367 42.0687 31.0598 42.0687 30.5625C42.0841 27.6852 41.3634 24.8517 39.9753 22.3314C38.5871 19.811 36.5775 17.6875 34.1375 16.1625V16.1625Z" fill="#059669"/>
</svg>
